arm260_states
version=1
nRows=38
nColumns=17
inDegrees=yes

# SIMM Motion File Header:
name arm260_states
datacolumns 17
datarows 38
otherdata 1
range 0.03000000 0.03768942
endheader
time	/jointset/r_shoulder/r_shoulder_elev/value	/jointset/r_shoulder/r_shoulder_elev/speed	/jointset/r_elbow/r_elbow_flex/value	/jointset/r_elbow/r_elbow_flex/speed	/forceset/TRIlong/activation	/forceset/TRIlong/fiber_length	/forceset/TRIlat/activation	/forceset/TRIlat/fiber_length	/forceset/TRImed/activation	/forceset/TRImed/fiber_length	/forceset/BIClong/activation	/forceset/BIClong/fiber_length	/forceset/BICshort/activation	/forceset/BICshort/fiber_length	/forceset/BRA/activation	/forceset/BRA/fiber_length
      0.03000000	      0.00000000	      0.00000000	     30.00000025	     -0.00000000	      0.02000000	      0.14831728	      0.06273160	      0.08183365	      0.06132409	      0.07689699	      0.12263638	      0.13834248	      0.02301921	      0.13860122	      0.02000000	      0.08622984
      0.03001298	      0.00000000	      0.00001349	     30.00000025	     -0.00002849	      0.02000000	      0.14831728	      0.06277743	      0.08183366	      0.06132821	      0.07689699	      0.12303945	      0.13834260	      0.02307461	      0.13860123	      0.02000784	      0.08622984
      0.03002596	      0.00000000	      0.00002804	     30.00000025	     -0.00006115	      0.02000000	      0.14831728	      0.06283251	      0.08183367	      0.06133327	      0.07689700	      0.12352458	      0.13834272	      0.02314103	      0.13860124	      0.02001722	      0.08622984
      0.03009087	      0.00000000	      0.00011481	     30.00000024	     -0.00028059	      0.02000000	      0.14831728	      0.06310601	      0.08183370	      0.06135840	      0.07689702	      0.12592890	      0.13834325	      0.02347055	      0.13860128	      0.02006378	      0.08622983
      0.03041540	      0.00000014	      0.00072783	     29.99999987	     -0.00216198	      0.02000000	      0.14831728	      0.06442699	      0.08183367	      0.06148002	      0.07689713	      0.13744377	      0.13834469	      0.02505531	      0.13860053	      0.02028814	      0.08622969
      0.03069109	      0.00000041	      0.00121037	     29.99999903	     -0.00378801	      0.02000000	      0.14831728	      0.06549092	      0.08183327	      0.06157820	      0.07689719	      0.14661428	      0.13834469	      0.02632340	      0.13859862	      0.02046814	      0.08622944
      0.03087952	      0.00000065	      0.00135721	     29.99999826	     -0.00431005	      0.02000000	      0.14831728	      0.06618882	      0.08183281	      0.06164271	      0.07689722	      0.15258734	      0.13834382	      0.02715111	      0.13859672	      0.02058585	      0.08622920
      0.03097248	      0.00000078	      0.00133119	     29.99999786	     -0.00422971	      0.02000000	      0.14831728	      0.06652467	      0.08183253	      0.06167378	      0.07689724	      0.15545128	      0.13834312	      0.02754826	      0.13859561	      0.02064238	      0.08622907
      0.03099960	      0.00000082	      0.00130839	     29.99999775	     -0.00415329	      0.02000000	      0.14831728	      0.06662164	      0.08183244	      0.06168275	      0.07689724	      0.15627698	      0.13834288	      0.02766278	      0.13859527	      0.02065868	      0.08622903
      0.03101358	      0.00000083	      0.00129331	     29.99999769	     -0.00410297	      0.02000439	      0.14831728	      0.06675651	      0.08183240	      0.06179658	      0.07689724	      0.15632517	      0.13834276	      0.02768125	      0.13859509	      0.02066353	      0.08622901
      0.03102755	      0.00000085	      0.00127538	     29.99999763	     -0.00404410	      0.02000965	      0.14831728	      0.06690801	      0.08183235	      0.06193191	      0.07689724	      0.15629815	      0.13834263	      0.02769161	      0.13859491	      0.02066767	      0.08622899
      0.03109743	      0.00000094	      0.00114603	     29.99999736	     -0.00363124	      0.02003571	      0.14831727	      0.06765938	      0.08183206	      0.06260311	      0.07689721	      0.15616316	      0.13834201	      0.02774305	      0.13859401	      0.02068817	      0.08622889
      0.03144683	      0.00000114	     -0.00012890	     29.99999672	      0.00029492	      0.02016100	      0.14831714	      0.07126870	      0.08182978	      0.06582755	      0.07689621	      0.15549137	      0.13833905	      0.02799042	      0.13858949	      0.02078672	      0.08622834
      0.03172683	      0.00000094	     -0.00124496	     29.99999730	      0.00367747	      0.02025558	      0.14831692	      0.07399330	      0.08182702	      0.06826170	      0.07689450	      0.15495677	      0.13833685	      0.02817734	      0.13858584	      0.02086113	      0.08622788
      0.03197746	      0.00000055	     -0.00174057	     29.99999845	      0.00514168	      0.02033608	      0.14831665	      0.07631399	      0.08182393	      0.07033491	      0.07689236	      0.15448105	      0.13833502	      0.02833659	      0.13858255	      0.02092448	      0.08622745
      0.03201254	      0.00000049	     -0.00174666	     29.99999863	      0.00515214	      0.02035408	      0.14831660	      0.07657723	      0.08182345	      0.07057038	      0.07689202	      0.15441508	      0.13833477	      0.02844529	      0.13858209	      0.02095848	      0.08622739
      0.03204762	      0.00000042	     -0.00173657	     29.99999881	      0.00511574	      0.02040698	      0.14831655	      0.07657408	      0.08182297	      0.07056937	      0.07689168	      0.15435119	      0.13833452	      0.02898603	      0.13858159	      0.02111858	      0.08622732
      0.03222304	      0.00000014	     -0.00149342	     29.99999965	      0.00438691	      0.02066620	      0.14831621	      0.07655833	      0.08182064	      0.07056435	      0.07689000	      0.15403246	      0.13833333	      0.03162652	      0.13857827	      0.02190235	      0.08622677
      0.03267518	     -0.00000026	     -0.00023866	     30.00000084	      0.00074673	      0.02129540	      0.14831462	      0.07651792	      0.08181495	      0.07055147	      0.07688594	      0.15321657	      0.13833051	      0.03797779	      0.13856411	      0.02380050	      0.08622404
      0.03291835	     -0.00000026	      0.00021561	     30.00000084	     -0.00056064	      0.02161189	      0.14831340	      0.07649630	      0.08181209	      0.07054457	      0.07688390	      0.15278110	      0.13832913	      0.04114481	      0.13855372	      0.02475315	      0.08622192
      0.03300982	     -0.00000024	      0.00026208	     30.00000078	     -0.00069343	      0.02171979	      0.14831288	      0.07652149	      0.08181105	      0.07057465	      0.07688315	      0.15262364	      0.13832864	      0.04213804	      0.13854940	      0.02506017	      0.08622103
      0.03310129	     -0.00000021	      0.00026676	     30.00000071	     -0.00070106	      0.02178926	      0.14831235	      0.07671116	      0.08181001	      0.07076607	      0.07688241	      0.15249513	      0.13832816	      0.04233966	      0.13854501	      0.02516558	      0.08622012
      0.03355863	     -0.00000010	      0.00022273	     30.00000044	     -0.00047219	      0.02211907	      0.14830953	      0.07761715	      0.08180477	      0.07167978	      0.07687858	      0.15185628	      0.13832593	      0.04329866	      0.13852337	      0.02566611	      0.08621562
      0.03399683	      0.00000001	      0.00031542	     30.00000022	     -0.00065484	      0.02240936	      0.14830663	      0.07842270	      0.08179973	      0.07249129	      0.07687478	      0.15124992	      0.13832406	      0.04414544	      0.13850311	      0.02610684	      0.08621141
      0.03414528	      0.00000006	      0.00041766	     30.00000011	     -0.00092815	      0.02258528	      0.14830560	      0.07841426	      0.08179804	      0.07247910	      0.07687350	      0.15102021	      0.13832348	      0.04446339	      0.13849636	      0.02619381	      0.08621001
      0.03429373	      0.00000014	      0.00054530	     29.99999995	     -0.00125424	      0.02277259	      0.14830451	      0.07835169	      0.08179640	      0.07241168	      0.07687225	      0.15078612	      0.13832293	      0.04478191	      0.13848964	      0.02626773	      0.08620866
      0.03490469	      0.00000065	      0.00114587	     29.99999871	     -0.00278187	      0.02349005	      0.14829942	      0.07809577	      0.08179021	      0.07213590	      0.07686762	      0.14983047	      0.13832097	      0.04600609	      0.13846247	      0.02655127	      0.08620343
      0.03507403	      0.00000086	      0.00128794	     29.99999821	     -0.00317175	      0.02365781	      0.14829788	      0.07804286	      0.08178864	      0.07208818	      0.07686646	      0.14960508	      0.13832052	      0.04631998	      0.13845509	      0.02664465	      0.08620208
      0.03524337	      0.00000109	      0.00144694	     29.99999764	     -0.00362561	      0.02373797	      0.14829633	      0.07807695	      0.08178711	      0.07217962	      0.07686533	      0.14956653	      0.13832008	      0.04661394	      0.13844777	      0.02683485	      0.08620073
      0.03574779	      0.00000195	      0.00195594	     29.99999543	     -0.00514244	      0.02396215	      0.14829185	      0.07817313	      0.08178278	      0.07243730	      0.07686208	      0.14945240	      0.13831883	      0.04743836	      0.13842641	      0.02736682	      0.08619672
      0.03599046	      0.00000245	      0.00216115	     29.99999410	     -0.00578169	      0.02406267	      0.14828976	      0.07821666	      0.08178081	      0.07255380	      0.07686056	      0.14939788	      0.13831827	      0.04780918	      0.13841638	      0.02760535	      0.08619479
      0.03606381	      0.00000261	      0.00221686	     29.99999367	     -0.00595789	      0.02411538	      0.14828913	      0.07834569	      0.08178023	      0.07268319	      0.07686011	      0.14925649	      0.13831810	      0.04824474	      0.13841335	      0.02775160	      0.08619421
      0.03613715	      0.00000278	      0.00227808	     29.99999322	     -0.00614907	      0.02417198	      0.14828851	      0.07849621	      0.08177964	      0.07282985	      0.07685965	      0.14909037	      0.13831795	      0.04873898	      0.13841028	      0.02791095	      0.08619362
      0.03650388	      0.00000368	      0.00264621	     29.99999077	     -0.00727947	      0.02444352	      0.14828532	      0.07922182	      0.08177663	      0.07353654	      0.07685727	      0.14826393	      0.13831730	      0.05110873	      0.13839423	      0.02867518	      0.08619047
      0.03691208	      0.00000485	      0.00311302	     29.99998751	     -0.00872421	      0.02472452	      0.14828173	      0.07997916	      0.08177317	      0.07427350	      0.07685448	      0.14735206	      0.13831683	      0.05355984	      0.13837524	      0.02946560	      0.08618672
      0.03702313	      0.00000520	      0.00324098	     29.99998651	     -0.00912933	      0.02478510	      0.14828075	      0.08013362	      0.08177221	      0.07442517	      0.07685370	      0.14712458	      0.13831675	      0.05409333	      0.13836991	      0.02963765	      0.08618567
      0.03713418	      0.00000557	      0.00337115	     29.99998548	     -0.00954440	      0.02478393	      0.14827979	      0.08007218	      0.08177127	      0.07437408	      0.07685293	      0.14699315	      0.13831668	      0.05411486	      0.13836462	      0.02964496	      0.08618463
      0.03768942	      0.00000763	      0.00405743	     29.99997958	     -0.01172722	      0.02477811	      0.14827538	      0.07976670	      0.08176694	      0.07412002	      0.07684941	      0.14634044	      0.13831648	      0.05421653	      0.13833936	      0.02967938	      0.08617988
